<svg width="25" height="22" viewBox="0 0 25 22" fill="none" xmlns="http://www.w3.org/2000/svg">
<path d="M24.3811 10.1408L19.8482 6.26985C19.8535 6.24337 19.8588 6.2169 19.8641 6.18512V1.12264C19.8588 0.8208 19.6205 0.577207 19.3187 0.566616H16.7874C16.4962 0.566616 16.2579 0.826095 16.2579 1.12264V3.21965L12.6305 0.127092C12.4345 -0.0423639 12.1433 -0.0423639 11.942 0.127092L0.191374 10.1356C-0.0363321 10.3209 -0.0628095 10.6545 0.122532 10.8822C0.307874 11.1099 0.64149 11.1364 0.869195 10.9511C0.874491 10.9458 0.874491 10.9458 0.879786 10.9405L12.2863 1.22855L23.698 10.9458C23.9204 11.1364 24.254 11.1099 24.4447 10.8875C24.63 10.6651 24.6035 10.3315 24.3811 10.1408ZM18.7997 5.37491L17.317 4.12518V1.63101H18.7997V5.37491Z" fill="url(#paint0_linear_1_454)"/>
<path d="M22.0459 11.2105L12.6305 3.16669C12.4346 2.99724 12.1433 2.99724 11.9421 3.16669L2.52675 11.2105C2.30434 11.4012 2.27786 11.7348 2.4685 11.9572C2.65384 12.1796 2.98216 12.2061 3.19928 12.0207L3.20457 12.0154L3.86651 11.4435V21.3726C3.8718 21.6691 4.1154 21.9127 4.41194 21.918H20.1554C20.452 21.9127 20.6956 21.6744 20.7008 21.3726V11.4435L21.3628 12.0154C21.4581 12.0949 21.5746 12.1425 21.7017 12.1425C21.8553 12.1425 22.0035 12.0737 22.1041 11.9572C22.3001 11.7295 22.2683 11.3959 22.0459 11.2105ZM14.4045 20.8536H10.1681V15.1345H14.4045V20.8536ZM15.4636 20.8536V14.6208C15.4636 14.3296 15.2465 14.0754 14.9552 14.0754H9.6174C9.32615 14.0754 9.10904 14.3296 9.10904 14.6208V20.8536H4.9256V10.538L12.2863 4.26815L19.647 10.538V20.8536H15.4636Z" fill="url(#paint1_linear_1_454)"/>
<defs>
<linearGradient id="paint0_linear_1_454" x1="0.361289" y1="1.28929" x2="24.5726" y2="1.18803" gradientUnits="userSpaceOnUse">
<stop stop-color="#4181F9"/>
<stop offset="1" stop-color="#0047CC"/>
</linearGradient>
<linearGradient id="paint1_linear_1_454" x1="0.361289" y1="1.28929" x2="24.5726" y2="1.18803" gradientUnits="userSpaceOnUse">
<stop stop-color="#4181F9"/>
<stop offset="1" stop-color="#0047CC"/>
</linearGradient>
</defs>
</svg>
