<svg width="9" height="13" viewBox="0 0 9 13" fill="none" xmlns="http://www.w3.org/2000/svg">
<path d="M6.06945 12.2187L8.78716 9.49852C9.07113 9.21429 9.07092 8.75369 8.78669 8.46972C8.50246 8.18575 8.04186 8.18597 7.75789 8.47019L5.04043 11.1902C4.75679 11.4738 4.29527 11.4738 4.01163 11.1902C4.01057 11.1891 4.00948 11.1881 4.00843 11.187L1.25434 8.46681C0.968476 8.18448 0.507874 8.18731 0.225539 8.47318C0.0854989 8.61493 0.0156251 8.79967 0.0156251 8.98434C0.0156251 9.17203 0.0878278 9.35965 0.231905 9.50194L2.98457 12.2207C3.83565 13.0699 5.21884 13.0693 6.06945 12.2187Z" fill="#20CB85"/>
<path d="M5.25348 8.47513L5.25348 0.727479C5.25348 0.325692 4.92779 4.27094e-08 4.526 9.53973e-08C4.12421 1.48085e-07 3.79852 0.325692 3.79852 0.727479L3.79852 8.47513C3.79852 8.87691 4.12422 9.20261 4.526 9.20261C4.92779 9.20261 5.25348 8.87691 5.25348 8.47513Z" fill="#20CB85"/>
</svg>
