<svg width="9" height="13" viewBox="0 0 9 13" fill="none" xmlns="http://www.w3.org/2000/svg">
<path d="M2.93055 0.781292L0.212838 3.50148C-0.0711337 3.78571 -0.0709155 4.24631 0.21331 4.53028C0.497536 4.81425 0.958139 4.81403 1.24211 4.52981L3.95957 1.80984C4.24321 1.52619 4.70473 1.52619 4.98837 1.80984C4.98943 1.81089 4.99052 1.81195 4.99157 1.813L7.74566 4.53319C8.03152 4.81552 8.49213 4.81269 8.77446 4.52682C8.9145 4.38508 8.98438 4.20033 8.98438 4.01566C8.98438 3.82797 8.91217 3.64036 8.7681 3.49806L6.01543 0.779255C5.16435 -0.0699311 3.78116 -0.0693127 2.93055 0.781292Z" fill="#EF2993"/>
<path d="M3.74652 4.52487L3.74652 12.2725C3.74652 12.6743 4.07221 13 4.474 13C4.87579 13 5.20148 12.6743 5.20148 12.2725L5.20148 4.52487C5.20148 4.12309 4.87579 3.79739 4.474 3.79739C4.07221 3.79739 3.74652 4.12309 3.74652 4.52487Z" fill="#EF2993"/>
</svg>
