<svg width="25" height="25" viewBox="0 0 25 25" fill="none" xmlns="http://www.w3.org/2000/svg">
<path d="M18.9451 9.60384C18.9451 6.04428 16.0596 3.15869 12.5 3.15869C8.94045 3.15869 6.05486 6.04428 6.05486 9.60384C5.13464 9.71842 4.26454 10.32 4.26454 11.7164V15.0822C4.26454 16.6577 5.36738 17.2306 6.41292 17.2306H7.45131C7.64905 17.2306 7.80937 17.0703 7.80937 16.8725V9.94042C7.80937 9.74268 7.64905 9.58235 7.45131 9.58235H6.77099C6.77099 6.41832 9.33598 3.85333 12.5 3.85333C15.664 3.85333 18.229 6.41832 18.229 9.58235H17.5487C17.351 9.58235 17.1906 9.74268 17.1906 9.94042V16.8618C17.1906 17.0595 17.351 17.2198 17.5487 17.2198H18.229C18.1288 19.6797 16.9472 20.2562 14.5875 20.3601V20.1202C14.5875 19.7246 14.2669 19.404 13.8714 19.404H11.6192C11.2236 19.404 10.903 19.7246 10.903 20.1202V21.2839C10.903 21.6794 11.2236 22 11.6192 22H13.8785C14.2741 22 14.5947 21.6794 14.5947 21.2839V21.0762C16.8648 20.9724 18.827 20.5033 18.9451 17.1984C19.8654 17.0838 20.7355 16.4822 20.7355 15.0858V11.72C20.7355 10.3164 19.869 9.71842 18.9451 9.60384ZM7.09324 10.2734V16.5037H6.39502C5.86509 16.5037 4.96277 16.3175 4.96277 15.0715V11.7057C4.96277 10.4703 5.85434 10.2734 6.39502 10.2734H7.09324ZM13.8785 20.7432V21.2875H11.6192V20.1237H13.8785V20.7432ZM20.0193 15.0822C20.0193 16.3175 19.1278 16.5145 18.5871 16.5145H17.9068V10.2985H18.605C19.1349 10.2985 20.0372 10.4847 20.0372 11.7307L20.0193 15.0822Z" fill="#263238" fill-opacity="0.5"/>
<path d="M19.8443 15.0813V15.0822C19.8443 15.6518 19.6424 15.9522 19.4055 16.1183C19.1574 16.2922 18.8415 16.3395 18.5871 16.3395H18.0818V10.4735H18.605C18.8549 10.4735 19.1709 10.5183 19.4201 10.6912C19.6578 10.8559 19.8621 11.1559 19.8622 11.7303C19.8622 11.7305 19.8622 11.7306 19.8622 11.7307L19.8443 15.0813ZM19.1185 9.45324C19.0384 5.86659 16.1059 2.98369 12.5 2.98369C8.89409 2.98369 5.96153 5.86665 5.88154 9.45335C5.44438 9.53274 5.01833 9.7216 4.68964 10.0569C4.32038 10.4336 4.08954 10.9795 4.08954 11.7164V15.0822C4.08954 15.9147 4.38309 16.5037 4.83433 16.8814C5.28031 17.2547 5.86103 17.4056 6.41292 17.4056H7.45131C7.7457 17.4056 7.98437 17.1669 7.98437 16.8725V9.94042C7.98437 9.64603 7.7457 9.40735 7.45131 9.40735H6.94869C7.04113 6.42095 9.49117 4.02833 12.5 4.02833C15.5088 4.02833 17.9589 6.42095 18.0513 9.40735H17.5487C17.2543 9.40735 17.0156 9.64603 17.0156 9.94042V16.8618C17.0156 17.1562 17.2543 17.3948 17.5487 17.3948H18.0445C17.9723 18.4888 17.6652 19.1368 17.1487 19.5349C16.6216 19.941 15.8435 20.1149 14.7625 20.1761V20.1202C14.7625 19.628 14.3636 19.229 13.8714 19.229H11.6192C11.127 19.229 10.728 19.628 10.728 20.1202V21.2839C10.728 21.776 11.127 22.175 11.6192 22.175H13.8785C14.3707 22.175 14.7697 21.776 14.7697 21.2839V21.2427C15.8465 21.184 16.8834 21.0277 17.6761 20.4818C18.5 19.9145 19.0284 18.9512 19.1136 17.3497C19.5525 17.2709 19.9805 17.0819 20.3104 16.7453C20.6796 16.3686 20.9105 15.8227 20.9105 15.0858V11.72C20.9105 10.9799 20.6808 10.4331 20.3118 10.0561C19.9832 9.72045 19.5569 9.53239 19.1185 9.45324ZM6.91824 10.4484V16.3287H6.39502C6.14515 16.3287 5.82915 16.2839 5.57987 16.111C5.34216 15.9463 5.13777 15.6461 5.13777 15.0715V11.7057C5.13777 11.1361 5.33973 10.8357 5.5766 10.6696C5.82466 10.4957 6.1406 10.4484 6.39502 10.4484H6.91824ZM13.7035 20.7432V21.1125H11.7942V20.2987H13.7035V20.7432Z" stroke="#263238" stroke-opacity="0.5" stroke-width="0.35"/>
</svg>
