<svg width="23" height="29" viewBox="0 0 23 29" fill="none" xmlns="http://www.w3.org/2000/svg">
<path d="M10.5907 9.28133C10.6967 9.28133 10.7675 9.24608 10.8382 9.17532L11.8986 7.93814C12.0046 7.79687 12.0046 7.58459 11.8634 7.47858C11.7221 7.37257 11.5098 7.37257 11.4038 7.51384L10.3434 8.75102C10.2374 8.89229 10.2374 9.10456 10.3787 9.21057C10.4492 9.28133 10.5199 9.28133 10.5907 9.28133" fill="white"/>
<path d="M14.939 9.17532C15.0098 9.24607 15.1158 9.28133 15.1865 9.28133C15.2573 9.28133 15.3278 9.24607 15.3986 9.21057C15.5398 9.10456 15.5398 8.89253 15.4338 8.75102L14.3734 7.51384C14.2674 7.37257 14.0554 7.37257 13.9139 7.47858C13.7726 7.5846 13.7726 7.79663 13.8786 7.93814L14.939 9.17532" fill="white"/>
<path d="M12.8888 10.5183C13.0656 10.5183 13.2069 10.3771 13.2069 10.2003V8.18553C13.2069 8.00876 13.0656 7.86749 12.8888 7.86749C12.7121 7.86749 12.5708 8.00876 12.5708 8.18553V10.2C12.5708 10.3768 12.7121 10.5183 12.8888 10.5183" fill="white"/>
<path d="M21.6539 20.2735C21.4418 20.4147 16.1754 24.0199 14.9384 24.4795C14.9384 24.4795 13.8073 24.9391 12.9944 24.9391H5.46608V25.0451L4.2289 20.3795L4.72371 19.8847C5.14776 19.4251 5.60732 19.1071 5.9961 18.8598C6.20813 18.7186 6.42016 18.6478 6.63218 18.5418C8.6114 17.7289 10.1313 18.7893 10.2726 18.8953C10.8735 19.4254 12.9235 19.3549 13.5951 19.3194C13.9131 19.3901 14.2667 19.4962 14.4079 19.7789C14.5492 20.097 14.3372 20.5213 14.3372 20.5213C14.3372 20.5566 14.3019 20.5566 14.3019 20.5921C13.8781 21.1571 11.8636 21.1571 10.5205 21.0159V21.1571L10.4497 21.6872C10.6972 21.7225 11.3333 21.7932 12.0401 21.7932C12.9237 21.7932 13.9841 21.6872 14.5849 21.2631C14.6557 21.2279 14.7262 21.1571 14.797 21.0864C15.433 21.2276 15.8926 20.9804 16.1046 20.8036C16.1754 20.7328 16.5994 20.3795 17.2358 19.9553C17.6953 19.6372 18.2606 19.2484 18.8262 18.9304C19.2858 18.6829 19.7451 18.4708 20.1694 18.3296C20.2754 18.2943 20.3814 18.2588 20.4874 18.2236C20.841 18.1528 21.9366 18.0468 22.2546 18.5771C22.2194 18.6124 22.7142 19.4607 21.6538 20.2736L21.6539 20.2735ZM2.81531 27.3777L0.765335 19.5666L3.16863 18.9305L3.48667 20.2029L3.52193 20.2382L5.25386 26.7769L2.81531 27.3777ZM5.60764 15.3606C5.60764 13.3814 6.4205 11.1901 7.76365 9.49337C9.21283 7.69087 11.0153 6.70129 12.8885 6.70129C14.7618 6.70129 16.5642 7.69093 18.0134 9.49337C19.3565 11.1898 20.1694 13.3814 20.1694 15.3606C20.1694 16.315 19.9926 17.1278 19.6393 17.7994C17.7661 18.5063 15.7161 20.2383 15.6101 20.309C15.6101 20.309 15.4333 20.4503 15.08 20.4503C15.1508 20.2027 15.186 19.8495 15.0093 19.5314C14.7972 19.1073 14.3732 18.8246 13.6661 18.6831H13.6309C12.4292 18.7538 10.98 18.6478 10.7325 18.4003L10.6972 18.365C10.662 18.3298 9.88437 17.7642 8.71801 17.5874C8.08193 17.4814 7.19833 17.5167 6.24396 17.941C5.85492 17.2691 5.60764 16.421 5.60764 15.3607L5.60764 15.3606ZM9.74294 5.99434V4.96948H16.0696V5.99434H9.74294ZM10.2377 2.5304C10.2377 2.38913 10.3085 2.28287 10.3438 2.28287H10.379C10.485 2.28287 10.6265 2.35363 10.7678 2.42414C11.0506 2.56541 11.4039 2.74218 11.7927 2.60091C12.0402 2.4949 12.1815 2.28287 12.2875 2.1061C12.535 1.7173 12.7823 1.39928 13.1003 1.08124C13.2064 1.43479 13.3831 1.78807 13.5599 2.07088C13.6659 2.24766 13.8779 2.53044 14.196 2.56569C14.408 2.60095 14.5848 2.53044 14.726 2.45968L15.9277 2.00013C15.9629 2.00013 15.9984 1.96487 16.0337 1.96487C16.0337 1.96487 16.069 2.00013 16.069 2.03563C16.2457 2.28316 16.4225 2.53044 16.5638 2.84849C16.5638 2.84849 16.5285 2.84849 16.5285 2.88374C15.9629 3.27254 15.4681 3.80263 15.0793 4.33293L10.9445 4.33317C10.8738 4.1564 10.7678 4.01513 10.697 3.83836C10.4145 3.34355 10.2024 2.91928 10.2377 2.53043L10.2377 2.5304ZM22.785 18.2233C22.2902 17.3397 20.9825 17.4457 20.4877 17.5165C20.7353 16.8804 20.8413 16.1381 20.8413 15.3252C20.8413 11.932 18.7205 8.11494 15.6457 6.63048H16.3173C16.5293 6.63048 16.7413 6.4537 16.7413 6.20642V4.6512C16.7413 4.43917 16.5646 4.22714 16.3173 4.22714H15.9285C16.2113 3.8736 16.5645 3.59107 16.9181 3.30825C17.0241 3.2375 17.1656 3.13148 17.2362 2.8842C17.2714 2.70742 17.2009 2.53065 17.1654 2.46014C17.0241 2.1421 16.8119 1.82407 16.5998 1.50578C16.5291 1.43502 16.4231 1.29375 16.2463 1.22299C15.9988 1.15223 15.7867 1.22299 15.6455 1.25825L14.4438 1.7178C14.4086 1.75306 14.3025 1.78856 14.267 1.75306C14.267 1.75306 14.1963 1.75306 14.0903 1.57628C13.8427 1.18748 13.6662 0.727955 13.5955 0.268604C13.5602 0.16259 13.4894 0.0565754 13.3834 0.0210733C13.2774 -0.0141821 13.1359 -0.014182 13.0654 0.0918316C12.5353 0.551384 12.0757 1.04619 11.687 1.64705C11.6162 1.75306 11.5457 1.85908 11.5102 1.89458C11.4394 1.92983 11.2274 1.82382 11.0861 1.75331C10.8033 1.61204 10.4501 1.39976 10.0613 1.57654C9.77848 1.71781 9.60172 2.00059 9.56646 2.38939C9.53121 2.99022 9.84925 3.52054 10.0965 4.01536C10.1318 4.08612 10.1673 4.12138 10.2025 4.19213H9.49572C9.28369 4.19213 9.07166 4.36891 9.07166 4.61619V6.17141C9.07166 6.38344 9.24843 6.59546 9.49572 6.59546H10.1673C7.09242 8.07993 4.9717 11.8971 4.9717 15.2902C4.9717 16.4213 5.21923 17.411 5.67852 18.2238C5.21897 18.5066 4.75963 18.8598 4.30009 19.3549L4.08806 19.5669L3.73452 18.4708C3.66376 18.2588 3.45173 18.1173 3.23971 18.188L0.306124 18.9656C0.20011 19.0009 0.0940955 19.0716 0.0585933 19.1424C-0.0121649 19.2484 -0.0121651 19.3544 0.0233377 19.4604L2.21463 27.8017C2.24988 27.9077 2.32064 28.0137 2.3914 28.0492C2.46216 28.0845 2.53267 28.12 2.60343 28.12H2.70944L5.64303 27.3424C5.85505 27.2717 5.99657 27.0596 5.92581 26.8476L5.60777 25.6812H12.9594C13.8783 25.6812 15.0447 25.2217 15.1507 25.1864C16.5291 24.6916 21.7954 21.0511 22.0075 20.8744C23.2799 19.8845 23.0679 18.7182 22.7851 18.2233" fill="white"/>
</svg>
