<svg width="23" height="22" viewBox="0 0 23 22" fill="none" xmlns="http://www.w3.org/2000/svg">
<path d="M17.7516 1.65969V1.89472L12.1046 0.111515C11.7718 0.00599739 11.4198 -0.025154 11.0736 0.020261C10.7274 0.065676 10.3954 0.18655 10.101 0.374345L7.76404 1.86153C7.47716 2.0432 7.23252 2.28421 7.04661 2.56836C6.8607 2.8525 6.73781 3.17318 6.68624 3.50881H1.47941C1.38133 3.50881 1.28726 3.54777 1.21791 3.61712C1.14855 3.68648 1.10959 3.78054 1.10959 3.87863V12.0147C1.10959 12.1128 1.14855 12.2069 1.21791 12.2762C1.28726 12.3456 1.38133 12.3845 1.47941 12.3845H17.0119C17.11 12.3845 17.2041 12.3456 17.2734 12.2762C17.3428 12.2069 17.3818 12.1128 17.3818 12.0147V8.06509C17.4315 8.02762 17.4804 7.98841 17.5278 7.94667H17.7516V8.68632C17.7516 8.7844 17.7906 8.87846 17.8599 8.94782C17.9293 9.01717 18.0233 9.05614 18.1214 9.05614H22.1895V8.31649H18.4912V2.02952H22.1895V1.28987H18.1214C18.0233 1.28987 17.9293 1.32884 17.8599 1.39819C17.7906 1.46755 17.7516 1.56161 17.7516 1.65969ZM11.924 9.79578C12.071 9.79571 12.2174 9.77906 12.3606 9.74615C11.8719 10.2682 11.565 10.9342 11.4856 11.6449H9.6155V4.24845H9.89553C10.1327 4.24845 10.3646 4.31879 10.5618 4.45056C10.759 4.58233 10.9127 4.76962 11.0034 4.98875C11.0942 5.20788 11.1179 5.449 11.0716 5.68161C11.0254 5.91423 10.9111 6.12791 10.7434 6.29561L10.5531 6.48594C10.2819 6.75709 10.0972 7.10256 10.0224 7.47866C9.94759 7.85477 9.98598 8.24461 10.1327 8.5989C10.2795 8.95318 10.528 9.25599 10.8468 9.46904C11.1657 9.68208 11.5405 9.79579 11.924 9.79578ZM14.4232 8.70735C14.1499 8.73763 13.8815 8.80191 13.6242 8.89871L14.4232 8.09976V8.70735ZM14.4232 9.4528V11.6449H12.2311C12.3118 11.0922 12.5687 10.5803 12.9637 10.1854C13.3586 9.79041 13.8705 9.53348 14.4232 9.4528ZM8.87585 11.6449H7.39657V4.24845H8.87585V11.6449ZM6.65692 11.6449H4.78677C4.70183 10.8951 4.36504 10.1963 3.83145 9.66268C3.29786 9.12909 2.59904 8.7923 1.84923 8.70735V7.18599C2.59904 7.10105 3.29786 6.76425 3.83145 6.23067C4.36504 5.69708 4.70183 4.99826 4.78677 4.24845H6.65692V11.6449ZM4.04133 4.24845C3.96065 4.80114 3.70372 5.31303 3.30877 5.70798C2.91381 6.10294 2.40192 6.35986 1.84923 6.44054V4.24845H4.04133ZM1.84923 9.4528C2.40192 9.53348 2.91381 9.79041 3.30877 10.1854C3.70372 10.5803 3.96065 11.0922 4.04133 11.6449H1.84923V9.4528ZM16.6421 11.6449H15.1628V8.44488C15.6444 8.59545 16.1605 8.59544 16.6421 8.44486V11.6449ZM17.3817 7.20707C17.2836 7.20707 17.1896 7.24603 17.1202 7.31537C16.797 7.63786 16.359 7.81897 15.9024 7.81896C15.4458 7.81895 15.0078 7.63783 14.6846 7.31533C14.6152 7.24601 14.5212 7.20707 14.4231 7.20707C14.325 7.20707 14.231 7.24601 14.1616 7.31533L12.7719 8.70492C12.6606 8.8164 12.5284 8.90486 12.3829 8.96523C12.2374 9.0256 12.0814 9.0567 11.9238 9.05676C11.7662 9.05682 11.6102 9.02582 11.4647 8.96556C11.3191 8.90529 11.1868 8.81693 11.0754 8.70552C10.964 8.59411 10.8756 8.46184 10.8154 8.31627C10.7551 8.17069 10.7241 8.01467 10.7242 7.85712C10.7242 7.69956 10.7553 7.54357 10.8157 7.39804C10.8761 7.25251 10.9645 7.12031 11.076 7.00898L11.2664 6.81865H11.2664C11.5376 6.54751 11.7223 6.20204 11.7971 5.82594C11.8719 5.44984 11.8335 5.06 11.6868 4.70572C11.54 4.35144 11.2915 4.04863 10.9727 3.83558C10.6539 3.62253 10.279 3.50881 9.89553 3.50881H7.43776C7.53421 3.08553 7.79427 2.71764 8.16113 2.48552L10.4981 0.99833C10.7014 0.868638 10.9307 0.785166 11.1698 0.753808C11.4089 0.722449 11.652 0.74397 11.8819 0.81685L17.7516 2.67038V7.20707H17.3817Z" fill="#263238" fill-opacity="0.5"/>
<path d="M2.21893 21.6302V21.2604H3.3284C3.42648 21.2604 3.52055 21.2215 3.5899 21.1521C3.65926 21.0828 3.69822 20.9887 3.69822 20.8906V20.4998L3.73319 20.5248C5.25886 21.6145 7.12166 22.1277 8.99017 21.9731C10.8587 21.8184 12.6118 21.006 13.9375 19.6802L16.7186 16.8992C17.0144 16.6034 17.189 16.2079 17.2082 15.79C17.2274 15.3722 17.0897 14.9623 16.8223 14.6407C16.5548 14.3191 16.1769 14.109 15.7626 14.0517C15.3482 13.9944 14.9274 14.094 14.5828 14.331C14.4831 14.1159 14.3309 13.9294 14.1402 13.7886C13.9495 13.6478 13.7265 13.5572 13.4916 13.5253C13.2567 13.4934 13.0176 13.5211 12.7962 13.6058C12.5749 13.6906 12.3784 13.8297 12.2249 14.0103C12.0318 13.8946 11.8142 13.8258 11.5896 13.8093C11.365 13.7928 11.1397 13.8291 10.9317 13.9154C10.7237 14.0016 10.5388 14.1354 10.3918 14.306C10.2448 14.4765 10.1398 14.6792 10.0852 14.8976L9.69644 16.4527H7.54964L7.28812 16.1912C6.82529 15.7285 6.22328 15.4307 5.57467 15.3435C4.92606 15.2564 4.26678 15.3847 3.69822 15.7088V15.3433C3.69822 15.2452 3.65926 15.1511 3.5899 15.0818C3.52055 15.0124 3.42648 14.9734 3.3284 14.9734H2.21893C2.21893 14.8754 2.17997 14.7813 2.11061 14.7119C2.04126 14.6426 1.94719 14.6036 1.84911 14.6036H0V15.3433H1.47929V21.2604H0V22.0001H1.84911C1.94719 22.0001 2.04126 21.9611 2.11061 21.8918C2.17997 21.8224 2.21893 21.7283 2.21893 21.6302ZM13.1383 14.2721C13.2354 14.2478 13.3367 14.2455 13.4348 14.2653C13.533 14.2852 13.6255 14.3266 13.7055 14.3867C13.7856 14.4468 13.8513 14.524 13.8977 14.6127C13.9442 14.7014 13.9703 14.7993 13.9741 14.8993L11.3936 17.4799C11.3506 17.3462 11.2887 17.2193 11.2097 17.103L12.7242 14.5789C12.7695 14.5029 12.8295 14.4367 12.9005 14.384C12.9716 14.3314 13.0524 14.2933 13.1383 14.2721ZM10.8028 15.077C10.8263 14.9831 10.8689 14.8951 10.928 14.8184C10.9871 14.7418 11.0614 14.6782 11.1462 14.6316C11.2311 14.585 11.3246 14.5565 11.421 14.5478C11.5174 14.5391 11.6146 14.5504 11.7064 14.581C11.7485 14.5951 11.7893 14.6132 11.828 14.635L10.6441 16.6081C10.5785 16.5753 10.5106 16.5475 10.4408 16.5249L10.8028 15.077ZM5.17751 16.0566C5.47248 16.0558 5.76468 16.1135 6.03719 16.2264C6.30971 16.3393 6.55713 16.5051 6.76512 16.7143L7.13495 17.0841C7.2043 17.1534 7.29837 17.1924 7.39644 17.1924H9.9852C10.1814 17.1924 10.3695 17.2703 10.5082 17.409C10.6469 17.5477 10.7248 17.7359 10.7248 17.932C10.7248 18.1282 10.6469 18.3163 10.5082 18.455C10.3695 18.5937 10.1814 18.6717 9.9852 18.6717H6.6568V19.4113H9.9852C10.2527 19.4111 10.5151 19.3384 10.7446 19.201C10.9741 19.0636 11.1621 18.8666 11.2886 18.6309L14.8695 15.0501C15.0454 14.8744 15.2838 14.7757 15.5324 14.7758C15.781 14.7759 16.0194 14.8747 16.1952 15.0504C16.371 15.2262 16.4697 15.4646 16.4698 15.7132C16.4699 15.9618 16.3713 16.2002 16.1956 16.3761L13.4145 19.1572C12.2126 20.3592 10.6232 21.0957 8.92918 21.236C7.23515 21.3762 5.54631 20.9109 4.1631 19.9229L3.69822 19.5908V16.6135C4.1067 16.2533 4.63293 16.0552 5.17751 16.0566ZM2.95858 15.7131V20.5208H2.21893V15.7131H2.95858Z" fill="#263238" fill-opacity="0.5"/>
</svg>
