<svg width="15" height="13" viewBox="0 0 15 13" fill="none" xmlns="http://www.w3.org/2000/svg">
<path d="M7.06314 3.92128L9.11664 5.97478L9.12642 5.86722C9.12642 4.7883 8.24962 3.9115 7.17071 3.9115L7.06314 3.92128Z" fill="white"/>
<path d="M7.17016 2.60748C8.96942 2.60748 10.4297 4.06776 10.4297 5.86702C10.4297 6.2875 10.345 6.68842 10.1983 7.05673L12.1051 8.96356C13.0895 8.14216 13.8653 7.07956 14.3444 5.86702C13.2134 3.00516 10.433 0.977722 7.17019 0.977722C6.25751 0.977722 5.38398 1.14069 4.57236 1.43405L5.98047 2.83889C6.34876 2.69548 6.74968 2.60748 7.17016 2.60748Z" fill="white"/>
<path d="M0.651896 0.83118L2.13824 2.31753L2.43487 2.61415C1.35922 3.45511 0.508487 4.57314 0 5.86715C1.12781 8.72901 3.91144 10.7564 7.17097 10.7564C8.18144 10.7564 9.14625 10.5609 10.0296 10.2056L10.3067 10.4826L12.207 12.3862L13.0382 11.5583L1.48308 0L0.651896 0.83118ZM4.25696 4.43297L5.26415 5.44016C5.23481 5.58033 5.21526 5.72047 5.21526 5.86715C5.21526 6.94607 6.09206 7.82287 7.17097 7.82287C7.31765 7.82287 7.45782 7.80331 7.59472 7.77398L8.60192 8.78117C8.16839 8.9963 7.686 9.12669 7.17097 9.12669C5.37171 9.12669 3.91144 7.66641 3.91144 5.86715C3.91144 5.35216 4.04183 4.86974 4.25696 4.43297Z" fill="white"/>
</svg>
