<svg width="12" height="14" viewBox="0 0 12 14" fill="none" xmlns="http://www.w3.org/2000/svg">
<path d="M10.1459 1.83853L10.148 3.32434V10.6757C10.148 11.2789 9.90833 11.8575 9.48177 12.284C9.05521 12.7106 8.47667 12.9502 7.87342 12.9502H1.84343C1.95209 13.2572 2.15324 13.523 2.41919 13.711C2.68515 13.899 3.00283 14 3.32853 14H7.87342C8.75509 14 9.60064 13.6498 10.2241 13.0263C10.8475 12.4029 11.1978 11.5573 11.1978 10.6757V3.32434C11.1978 2.63847 10.7589 2.05409 10.1459 1.83853ZM1.57468 0C1.36789 0 1.16312 0.0407305 0.972072 0.119866C0.781023 0.199001 0.607431 0.314992 0.461208 0.461215C0.314985 0.607438 0.198994 0.78103 0.119859 0.972079C0.0407233 1.16313 -6.67572e-06 1.36789 -6.67572e-06 1.57469V10.6729C-6.67572e-06 10.8797 0.0407233 11.0844 0.119859 11.2755C0.198994 11.4665 0.314985 11.6401 0.461208 11.7863C0.607431 11.9326 0.781023 12.0486 0.972072 12.1277C1.16312 12.2068 1.36789 12.2476 1.57468 12.2476H7.87342C8.29105 12.2476 8.69158 12.0816 8.98689 11.7863C9.2822 11.491 9.4481 11.0905 9.4481 10.6729V1.57469C9.4481 1.15705 9.2822 0.756525 8.98689 0.461215C8.69158 0.165904 8.29105 0 7.87342 0H1.57468ZM1.57468 1.04979H7.87342C8.01263 1.04979 8.14614 1.10509 8.24458 1.20353C8.34301 1.30197 8.39831 1.43547 8.39831 1.57469V10.6729C8.39831 10.9626 8.16316 11.1978 7.87342 11.1978H1.57468C1.43547 11.1978 1.30196 11.1425 1.20352 11.044C1.10508 10.9456 1.04978 10.8121 1.04978 10.6729V1.57469C1.04978 1.43547 1.10508 1.30197 1.20352 1.20353C1.30196 1.10509 1.43547 1.04979 1.57468 1.04979Z" fill="#141623"/>
</svg>
