<svg width="29" height="29" viewBox="0 0 29 29" fill="none" xmlns="http://www.w3.org/2000/svg">
<g clip-path="url(#clip0_1_303)">
<path d="M17.5883 13.3028C17.2752 12.9898 16.7666 12.9898 16.4535 13.3028L15.3023 14.454V1.26089C15.3023 0.817868 14.9428 0.458381 14.4998 0.458381C14.0568 0.458381 13.6973 0.817868 13.6973 1.26089V16.3913C13.6973 16.7152 13.8927 17.0088 14.1929 17.1327C14.2932 17.1747 14.3977 17.1938 14.4998 17.1938C14.7083 17.1938 14.9138 17.1121 15.0665 16.9593L17.5883 14.4376C17.5883 14.4375 17.5883 14.4375 17.5883 14.4375C17.9014 14.1245 17.9013 13.6159 17.5883 13.3028Z" fill="white" stroke="white" stroke-width="0.344118"/>
<path d="M13.9319 16.9593L13.9326 16.96C14.0893 17.1151 14.2946 17.1938 14.4999 17.1938C14.7051 17.1938 14.9108 17.1152 15.0667 16.9593L15.0667 16.9593C15.3798 16.6462 15.3798 16.1376 15.0667 15.8245L12.545 13.3028C12.2319 12.9897 11.7232 12.9897 11.4102 13.3028C11.0971 13.6158 11.0971 14.1245 11.4102 14.4376L13.9319 16.9593L13.9319 16.9593Z" fill="white" stroke="white" stroke-width="0.344118"/>
<path d="M23.8565 7.54414L23.8565 7.5441C23.0038 6.26572 21.577 5.50187 20.0417 5.50187H17.0219C16.5789 5.50187 16.2194 5.86136 16.2194 6.30438C16.2194 6.7474 16.5789 7.10689 17.0219 7.10689H20.0417C21.0395 7.10689 21.9667 7.60269 22.5211 8.43367L27.0665 15.2524L27.0666 15.2525C27.3944 15.7436 27.5672 16.3155 27.5672 16.9058V25.2174C27.5672 26.1651 26.7957 26.9366 25.8479 26.9366H3.15236C2.20463 26.9366 1.43312 26.1651 1.43312 25.2174V16.999C1.43312 16.3619 1.63153 15.753 2.0279 15.2105L2.02806 15.2106L2.03264 15.2036L6.11028 9.01531L6.11031 9.01527C6.89804 7.81916 8.22213 7.10683 9.6521 7.10683H11.9784C12.4214 7.10683 12.7809 6.74735 12.7809 6.30432C12.7809 5.8613 12.4215 5.50187 11.9785 5.50187H9.65216C7.68029 5.50187 5.8548 6.48542 4.77011 8.13255L0.71248 14.2921C0.133978 15.0836 -0.171845 16.0194 -0.171845 16.999V25.2174C-0.171845 27.0498 1.31988 28.5416 3.15236 28.5416H25.8479C27.6804 28.5416 29.1721 27.0498 29.1721 25.2174V16.9057C29.1722 15.998 28.9062 15.1188 28.4019 14.3629C28.4019 14.3629 28.4019 14.3629 28.4019 14.3629L23.8565 7.54414Z" fill="white" stroke="white" stroke-width="0.344118"/>
<path d="M27.7397 15.5888H24.5876C22.7551 15.5888 21.2634 17.0805 21.2634 18.913C21.2634 19.8607 20.4918 20.6322 19.5441 20.6322H9.45717C8.50944 20.6322 7.73793 19.8607 7.73793 18.913C7.73793 17.0805 6.24621 15.5888 4.41373 15.5888H1.26153C0.818501 15.5888 0.459014 15.9483 0.459014 16.3913C0.459014 16.8344 0.818523 17.1938 1.26153 17.1938H4.41367C5.3614 17.1938 6.13291 17.9653 6.13291 18.913C6.13291 20.7455 7.62464 22.2372 9.45712 22.2372H19.5441C21.3766 22.2372 22.8683 20.7455 22.8683 18.913C22.8683 17.9653 23.6398 17.1938 24.5876 17.1938H27.7397C28.1827 17.1938 28.5422 16.8343 28.5422 16.3912C28.5422 15.9482 28.1827 15.5888 27.7397 15.5888Z" fill="white" stroke="white" stroke-width="0.344118"/>
</g>
<defs>
<clipPath id="clip0_1_303">
<rect width="28.9999" height="28.9999" fill="white"/>
</clipPath>
</defs>
</svg>
