<svg width="19" height="19" viewBox="0 0 19 19" fill="none" xmlns="http://www.w3.org/2000/svg">
<g clip-path="url(#clip0_1_395)">
<path d="M9.27601 11.2796C9.34936 11.3103 9.42561 11.3242 9.49985 11.3242C9.65187 11.3242 9.80168 11.2647 9.91313 11.1532L11.5653 9.50104C11.5653 9.50103 11.5653 9.50103 11.5653 9.50102C11.7936 9.27277 11.7936 8.90195 11.5653 8.67368C11.337 8.4454 10.9662 8.4454 10.7379 8.67368L10.085 9.32665V0.826095C10.085 0.50307 9.82287 0.240981 9.49985 0.240981C9.17682 0.240981 8.91473 0.503071 8.91473 0.826095V10.7391C8.91473 10.9752 9.05713 11.1892 9.27601 11.2796ZM9.27601 11.2796C9.27584 11.2796 9.27566 11.2795 9.27549 11.2794L9.34205 11.1208L9.27652 11.2799C9.27635 11.2798 9.27618 11.2797 9.27601 11.2796Z" fill="white" stroke="white" stroke-width="0.344118"/>
<path d="M9.08586 11.1532L9.0865 11.1539C9.20065 11.2668 9.35026 11.3242 9.49995 11.3242C9.64945 11.3242 9.79951 11.267 9.91324 11.1532L9.91325 11.1532C10.1415 10.9249 10.1415 10.5541 9.91324 10.3258L8.26106 8.67367C8.03278 8.44539 7.66195 8.44539 7.43368 8.67367C7.2054 8.90195 7.2054 9.27277 7.43368 9.50105L9.08586 11.1532L9.08586 11.1532Z" fill="white" stroke="white" stroke-width="0.344118"/>
<path d="M15.6795 4.9098L15.6794 4.90976C15.1098 4.05572 14.1565 3.54533 13.1307 3.54533H11.1523C10.8293 3.54533 10.5672 3.80742 10.5672 4.13045C10.5672 4.45347 10.8293 4.71556 11.1523 4.71556H13.1307C13.7647 4.71556 14.3536 5.03049 14.7059 5.55842L17.6839 10.0258L17.6839 10.0259C17.8922 10.3379 18.0019 10.7012 18.0019 11.0762V16.5217C18.0019 17.1099 17.523 17.5888 16.9349 17.5888H2.06534C1.47718 17.5888 0.998268 17.1099 0.998268 16.5217V11.1373C0.998268 10.7328 1.12406 10.346 1.37653 10.0005L1.37669 10.0006L1.38127 9.99364L4.05283 5.93922L4.05285 5.93918C4.55797 5.1722 5.40685 4.71552 6.32379 4.71552H7.84792C8.17094 4.71552 8.43303 4.45343 8.43303 4.13041C8.43303 3.80738 8.17098 3.54533 7.84795 3.54533H6.32383C5.01197 3.54533 3.79734 4.19975 3.07571 5.29556C3.0757 5.29557 3.0757 5.29558 3.07569 5.29558L0.418035 9.32994C0.032157 9.85845 -0.171922 10.4834 -0.171922 11.1373V16.5217C-0.171922 17.7551 0.831979 18.759 2.06534 18.759H16.9349C18.1682 18.759 19.1721 17.7551 19.1721 16.5217V11.0761C19.1722 10.4697 18.9944 9.88224 18.6575 9.37727C18.6575 9.37726 18.6575 9.37724 18.6575 9.37722L15.6795 4.9098Z" fill="white" stroke="white" stroke-width="0.344118"/>
<path d="M18.1743 10.154H16.1091C14.8757 10.154 13.8718 11.1579 13.8718 12.3913C13.8718 12.9794 13.3929 13.4583 12.8048 13.4583H6.19608C5.60793 13.4583 5.12902 12.9794 5.12902 12.3913C5.12902 11.1579 4.12512 10.154 2.89176 10.154H0.826523C0.503497 10.154 0.241409 10.4161 0.241409 10.7391C0.241409 11.0622 0.503519 11.3242 0.826523 11.3242H2.89172C3.47988 11.3242 3.95879 11.8031 3.95879 12.3913C3.95879 13.6246 4.96269 14.6285 6.19605 14.6285H12.8047C14.0381 14.6285 15.042 13.6246 15.042 12.3913C15.042 11.8031 15.5209 11.3242 16.1091 11.3242H18.1743C18.4973 11.3242 18.7594 11.0621 18.7594 10.7391C18.7594 10.4161 18.4973 10.154 18.1743 10.154Z" fill="white" stroke="white" stroke-width="0.344118"/>
</g>
<defs>
<clipPath id="clip0_1_395">
<rect width="19" height="19" fill="white"/>
</clipPath>
</defs>
</svg>
