<svg width="19" height="19" viewBox="0 0 19 19" fill="none" xmlns="http://www.w3.org/2000/svg">
<path d="M3.22755 5.72758C3.89347 5.99419 4.59493 6.12903 5.31234 6.12903C5.45606 6.12903 5.59979 6.12352 5.7429 6.11248L8.50281 5.90011C9.11877 6.44192 9.90114 6.74193 10.7258 6.74193C12.5844 6.74193 14.0968 5.2296 14.0968 3.37097C14.0968 1.51234 12.5844 0 10.7258 0C10.2842 0 9.86314 0.0876452 9.4761 0.24271C8.90334 0.0144032 8.27848 -0.0560807 7.66558 0.0459677L4.80577 0.522806C4.40953 0.588694 4.0185 0.69779 3.64371 0.847952L2.73631 1.21079L0 0.52679V6.21545L2.73631 5.53145L3.22755 5.72758ZM13.4839 3.37097C13.4839 4.89189 12.2464 6.12903 10.7258 6.12903C10.2162 6.12903 9.72616 5.98837 9.29927 5.72911C9.60174 5.54953 9.80645 5.22255 9.80645 4.85113C9.80645 4.38011 9.48713 3.97131 9.03021 3.85731L8.11147 3.62747C8.06856 3.61674 8.02658 3.60326 7.98398 3.59192C7.97847 3.51806 7.96774 3.44482 7.96774 3.37097C7.96774 1.85005 9.20519 0.612903 10.7258 0.612903C12.2464 0.612903 13.4839 1.85005 13.4839 3.37097ZM7.35576 3.39916C6.98618 3.27137 6.62334 3.12213 6.27368 2.94745C6.1845 2.90302 6.12903 2.81323 6.12903 2.71332C6.12903 2.56929 6.2464 2.45161 6.39074 2.45161H7.48539C7.40234 2.74427 7.35484 3.05195 7.35484 3.37097C7.35484 3.38047 7.35576 3.38997 7.35576 3.39916ZM3.8714 1.41703C4.20544 1.28342 4.55387 1.18597 4.9066 1.12744L7.7664 0.650597C8.08603 0.597274 8.40903 0.607387 8.72376 0.665306C8.3076 0.973903 7.96529 1.37444 7.72687 1.83871H6.39074C5.90839 1.83871 5.51613 2.23097 5.51613 2.71332C5.51613 3.04644 5.70123 3.34614 5.99971 3.49569C6.62518 3.80827 7.28558 4.05252 7.96314 4.22168L8.88189 4.45152C9.06545 4.49779 9.19355 4.66205 9.19355 4.85113C9.19355 5.06473 9.02653 5.24492 8.81355 5.26147L5.69571 5.50142C4.93173 5.56118 4.16713 5.4435 3.45524 5.1585L3.06452 5.00221V1.73973L3.8714 1.41703ZM2.45161 4.97034L0.612903 5.43002V1.31192L2.45161 1.7716V4.97034Z" fill="#263238" fill-opacity="0.5"/>
<path d="M18.1584 11.2094L16.8143 9.19353H16.8548C17.3617 9.19353 17.7741 8.78105 17.7741 8.27418C17.7741 7.76731 17.3617 7.35482 16.8548 7.35482H5.20962C4.70275 7.35482 4.29027 7.76731 4.29027 8.27418C4.29027 8.78105 4.70275 9.19353 5.20962 9.19353H5.25007L3.90628 11.2094C3.35559 12.035 3.06446 12.9963 3.06446 13.9889C3.06446 16.7522 5.31228 19 8.07556 19H13.9888C16.7521 19 18.9999 16.7522 18.9999 13.9889C18.9999 12.9963 18.7088 12.035 18.1584 11.2094ZM4.90317 8.27418C4.90317 8.10502 5.04077 7.96773 5.20962 7.96773H16.8548C17.0236 7.96773 17.1612 8.10502 17.1612 8.27418C17.1612 8.44334 17.0236 8.58063 16.8548 8.58063H5.20962C5.04077 8.58063 4.90317 8.44334 4.90317 8.27418ZM8.58059 15.9355V15.3226H9.19349V15.9355H9.8064V15.3226H10.4193V15.9355H11.0322V15.3226H11.6451V15.9355H12.258V15.3226H12.5645C12.7333 15.3226 12.8709 15.4599 12.8709 15.629V16.2419C12.8709 16.4111 12.7333 16.5484 12.5645 16.5484H7.66124C7.49238 16.5484 7.35478 16.4111 7.35478 16.2419V15.629C7.35478 15.4599 7.49238 15.3226 7.66124 15.3226H7.96769V15.9355H8.58059ZM9.8064 14.4032V13.7903C9.8064 13.6211 9.94399 13.4839 10.1128 13.4839H10.4193V14.0968H11.0322V13.4839H11.6451V14.0968H12.258V13.4839H12.8709V14.0968H13.4838V13.4839H14.0967V14.0968H14.7096V13.4839H15.0161C15.1849 13.4839 15.3225 13.6211 15.3225 13.7903V14.4032C15.3225 14.5724 15.1849 14.7097 15.0161 14.7097H10.1128C9.94399 14.7097 9.8064 14.5724 9.8064 14.4032ZM9.8064 12.258V11.6451H10.4193V12.258H11.0322V11.6451H11.6451V12.258H12.258V11.6451H12.8709V12.258H13.4838V11.6451H13.7903C13.9591 11.6451 14.0967 11.7824 14.0967 11.9516V12.5645C14.0967 12.7337 13.9591 12.871 13.7903 12.871H8.88704C8.71819 12.871 8.58059 12.7337 8.58059 12.5645V11.9516C8.58059 11.7824 8.71819 11.6451 8.88704 11.6451H9.19349V12.258H9.8064ZM8.88704 18.3871C8.71819 18.3871 8.58059 18.2498 8.58059 18.0806V17.4677C8.58059 17.2986 8.71819 17.1613 8.88704 17.1613H9.19349V17.7742H9.8064V17.1613H10.4193V17.7742H11.0322V17.1613H11.6451V17.7742H12.258V17.1613H12.8709V17.7742H13.4838V17.1613H13.7903C13.9591 17.1613 14.0967 17.2986 14.0967 17.4677V18.0806C14.0967 18.2498 13.9591 18.3871 13.7903 18.3871H8.88704ZM14.6713 18.3285C14.6937 18.2492 14.7096 18.167 14.7096 18.0806V17.4677C14.7096 16.9609 14.2971 16.5484 13.7903 16.5484H13.4274C13.4618 16.4521 13.4838 16.3498 13.4838 16.2419V15.629C13.4838 15.5211 13.4618 15.4188 13.4274 15.3226H15.0161C15.5229 15.3226 15.9354 14.9101 15.9354 14.4032V13.7903C15.9354 13.2834 15.5229 12.871 15.0161 12.871H14.6532C14.6876 12.7747 14.7096 12.6724 14.7096 12.5645V11.9516C14.7096 11.4447 14.2971 11.0322 13.7903 11.0322H8.88704C8.38017 11.0322 7.96769 11.4447 7.96769 11.9516V12.5645C7.96769 13.0714 8.38017 13.4839 8.88704 13.4839H9.24988C9.21556 13.5801 9.19349 13.6824 9.19349 13.7903V14.4032C9.19349 14.5111 9.21556 14.6134 9.24988 14.7097H7.66124C7.15436 14.7097 6.74188 15.1221 6.74188 15.629V16.2419C6.74188 16.7488 7.15436 17.1613 7.66124 17.1613H8.02407C7.98975 17.2575 7.96769 17.3599 7.96769 17.4677V18.0806C7.96769 18.1876 7.98945 18.289 8.02346 18.3843C5.62241 18.3561 3.67736 16.3964 3.67736 13.9889C3.67736 13.1176 3.93264 12.274 4.41591 11.5492L5.98648 9.19353H16.0779L17.6485 11.5495C18.1318 12.2743 18.387 13.118 18.387 13.9892C18.387 16.1812 16.7727 17.9988 14.6713 18.3285Z" fill="#263238" fill-opacity="0.5"/>
<path d="M15.1288 9.97146L15.6387 9.63134L16.0475 10.2442L15.5376 10.5843L15.1288 9.97146Z" fill="#263238" fill-opacity="0.5"/>
<path d="M17.1385 11.8894L16.4539 10.8622L15.9439 11.202L16.6286 12.2293C16.977 12.7521 17.1612 13.3607 17.1612 13.9889L17.1596 14.0876L17.7722 14.1057C17.7735 14.0668 17.7741 14.0278 17.7741 13.9889C17.7741 13.2393 17.5543 12.5133 17.1385 11.8894Z" fill="#263238" fill-opacity="0.5"/>
<path d="M4.57962 15.4403C4.68075 15.683 4.80793 15.9162 4.95748 16.1332L5.46189 15.7847C5.33656 15.603 5.23022 15.4081 5.14564 15.2049L4.57962 15.4403Z" fill="#263238" fill-opacity="0.5"/>
<path d="M4.92592 11.8894C4.51006 12.5133 4.29034 13.2393 4.29034 13.9889C4.29034 14.2527 4.31792 14.5169 4.37216 14.7731L4.97188 14.6462C4.92622 14.4317 4.90324 14.2104 4.90324 13.9889C4.90324 13.3603 5.08742 12.752 5.43585 12.2292L5.50756 12.1213L4.99763 11.7815L4.92592 11.8894Z" fill="#263238" fill-opacity="0.5"/>
</svg>
