<svg width="25" height="25" viewBox="0 0 25 25" fill="none" xmlns="http://www.w3.org/2000/svg">
<path d="M19.73 17.0276C19.2478 16.5977 18.8257 16.105 18.475 15.5626C18.0921 14.8138 17.8626 13.9962 17.8 13.1576V10.6876C17.8033 9.37037 17.3255 8.0973 16.4564 7.10755C15.5872 6.1178 14.3866 5.47949 13.08 5.31256V4.66756C13.08 4.49053 13.0097 4.32075 12.8845 4.19557C12.7593 4.07039 12.5895 4.00006 12.4125 4.00006C12.2355 4.00006 12.0657 4.07039 11.9405 4.19557C11.8153 4.32075 11.745 4.49053 11.745 4.66756V5.32256C10.4501 5.50152 9.26399 6.14369 8.40626 7.13011C7.54854 8.11654 7.07736 9.38038 7.08 10.6876V13.1576C7.01738 13.9962 6.78789 14.8138 6.405 15.5626C6.06044 16.1037 5.6451 16.5964 5.17 17.0276C5.11667 17.0744 5.07392 17.1321 5.04461 17.1968C5.0153 17.2614 5.00009 17.3316 5 17.4026V18.0826C5 18.2152 5.05268 18.3423 5.14645 18.4361C5.24021 18.5299 5.36739 18.5826 5.5 18.5826H19.4C19.5326 18.5826 19.6598 18.5299 19.7536 18.4361C19.8473 18.3423 19.9 18.2152 19.9 18.0826V17.4026C19.8999 17.3316 19.8847 17.2614 19.8554 17.1968C19.8261 17.1321 19.7833 17.0744 19.73 17.0276ZM6.04 17.5826C6.5052 17.1332 6.9148 16.6296 7.26 16.0826C7.74231 15.1783 8.02372 14.1806 8.085 13.1576V10.6876C8.06517 10.1016 8.16346 9.5176 8.37402 8.97039C8.58458 8.42319 8.90311 7.92395 9.31062 7.50241C9.71814 7.08087 10.2063 6.74564 10.7461 6.5167C11.2859 6.28775 11.8662 6.16976 12.4525 6.16976C13.0388 6.16976 13.6191 6.28775 14.1589 6.5167C14.6987 6.74564 15.1869 7.08087 15.5944 7.50241C16.0019 7.92395 16.3204 8.42319 16.531 8.97039C16.7415 9.5176 16.8398 10.1016 16.82 10.6876V13.1576C16.8813 14.1806 17.1627 15.1783 17.645 16.0826C17.9902 16.6296 18.3998 17.1332 18.865 17.5826H6.04Z" fill="#263238" fill-opacity="0.5"/>
<path d="M4.875 17.4026V17.4024C4.87511 17.3137 4.89412 17.226 4.93076 17.1451C4.96726 17.0646 5.02041 16.9928 5.08671 16.9343C5.55181 16.5122 5.95861 16.03 6.29639 15.5004C6.66939 14.7693 6.89327 13.9713 6.955 13.1529V10.6877V10.6876H7.08C7.07736 9.38038 7.54854 8.11654 8.40626 7.13011C9.26399 6.14369 10.4501 5.50152 11.745 5.32256L4.875 17.4026ZM4.875 17.4026V18.0826C4.875 18.2483 4.94085 18.4073 5.05806 18.5245C5.17527 18.6417 5.33424 18.7076 5.5 18.7076H19.4C19.5658 18.7076 19.7247 18.6417 19.8419 18.5245C19.9592 18.4073 20.025 18.2483 20.025 18.0826V17.4026V17.4024C20.0249 17.3137 20.0059 17.226 19.9692 17.1451C19.9327 17.0645 19.8794 16.9925 19.8129 16.934C19.3408 16.5131 18.9273 16.0308 18.5834 15.5M4.875 17.4026L18.5834 15.5M17.925 10.6879C17.9284 9.34022 17.4395 8.03771 16.5503 7.02507C15.6853 6.04005 14.4994 5.39526 13.205 5.20362V4.66756C13.205 4.45738 13.1215 4.2558 12.9729 4.10718C12.8243 3.95856 12.6227 3.87506 12.4125 3.87506C12.2023 3.87506 12.0007 3.95856 11.8521 4.10718C11.7035 4.2558 11.62 4.45738 11.62 4.66756V5.21473L17.8 10.6876M17.925 10.6879L17.8 10.6876M17.925 10.6879V10.6876H17.8M17.925 10.6879V13.1529M17.8 10.6876V13.1576M17.925 13.1529C17.9249 13.1513 17.9248 13.1498 17.9247 13.1483L17.8 13.1576M17.925 13.1529C17.9867 13.9712 18.2105 14.769 18.5834 15.5M17.925 13.1529V13.1576H17.8M17.8 13.1576L18.5834 15.5M17.5393 16.1493C17.8358 16.6191 18.1791 17.0574 18.5638 17.4576H6.34123C6.72591 17.0574 7.0692 16.6191 7.36571 16.1493L7.36599 16.1495L7.37029 16.1414C7.86107 15.2213 8.14742 14.206 8.20978 13.165L8.21 13.165V13.1576V10.6876H8.21007L8.20993 10.6833C8.19067 10.1141 8.28615 9.54684 8.49068 9.01529C8.69522 8.48373 9.00463 7.99878 9.40049 7.58929C9.79636 7.17981 10.2706 6.85417 10.7949 6.63177C11.3192 6.40938 11.883 6.29476 12.4525 6.29476C13.022 6.29476 13.5858 6.40938 14.1101 6.63177C14.6344 6.85417 15.1086 7.17981 15.5045 7.58929C15.9004 7.99878 16.2098 8.48373 16.4143 9.01529C16.6189 9.54684 16.7143 10.1141 16.6951 10.6833L16.695 10.6833V10.6876V13.1576H16.6948L16.6952 13.165C16.7576 14.206 17.0439 15.2213 17.5347 16.1414L17.5344 16.1415L17.5393 16.1493Z" stroke="#263238" stroke-opacity="0.5" stroke-width="0.25"/>
<path d="M12.475 20.2525C12.79 20.2453 13.0922 20.1269 13.3283 19.9183C13.5644 19.7096 13.7191 19.4242 13.765 19.1125H11.135C11.1822 19.4327 11.3442 19.7248 11.5906 19.9345C11.8371 20.1442 12.1514 20.2572 12.475 20.2525Z" fill="#263238" fill-opacity="0.5"/>
<path d="M12.4768 20.3775L12.4768 20.3775L12.4779 20.3775C12.8223 20.3696 13.1529 20.2401 13.4111 20.0119C13.6693 19.7838 13.8384 19.4716 13.8887 19.1308L13.9098 18.9875H13.765H11.135H10.9902L11.0113 19.1308C11.063 19.4809 11.2401 19.8004 11.5096 20.0297C11.7792 20.259 12.1229 20.3827 12.4768 20.3775Z" stroke="#263238" stroke-opacity="0.5" stroke-width="0.25"/>
</svg>
