<svg width="30" height="30" viewBox="0 0 30 30" fill="none" xmlns="http://www.w3.org/2000/svg">
<g clip-path="url(#clip0_1_328)">
<path d="M18.7409 17.6996C18.1659 17.6996 17.6998 18.1657 17.6998 18.7408C17.6998 20.4658 16.3013 21.8643 14.5763 21.8643C12.8512 21.8643 11.4528 20.4658 11.4528 18.7408C11.4528 18.1657 10.9866 17.6996 10.4116 17.6996C9.83657 17.6996 9.37042 18.1657 9.37042 18.7408C9.37042 21.6159 11.7011 23.9466 14.5762 23.9466C17.4513 23.9466 19.782 21.6159 19.782 18.7408C19.7821 18.1657 19.316 17.6996 18.7409 17.6996Z" fill="white"/>
<path d="M19.4771 4.46963L15.3125 0.305028C14.9059 -0.101452 14.2468 -0.101452 13.8403 0.305028L9.67562 4.46969C9.27615 4.88331 9.28762 5.54242 9.70124 5.94188C10.1047 6.33158 10.7444 6.33158 11.1479 5.94188L13.5353 3.55449V17.6997C13.5353 18.2748 14.0014 18.7409 14.5764 18.7409C15.1515 18.7409 15.6176 18.2747 15.6176 17.6997V3.55449L18.0049 5.94188C18.2002 6.13716 18.4649 6.24691 18.741 6.24697C19.3161 6.24685 19.7821 5.78058 19.782 5.2056C19.7819 4.92955 19.6723 4.66485 19.4771 4.46963Z" fill="white"/>
<path d="M28.1115 8.32923H18.741C18.166 8.32923 17.6998 8.79537 17.6998 9.37041C17.6998 9.94545 18.166 10.4116 18.741 10.4116H21.9582C22.4053 13.0275 24.4544 15.0766 27.0703 15.5237V21.9581C24.4544 22.4051 22.4053 24.4542 21.9582 27.0701H7.19457C6.74752 24.4542 4.6984 22.4051 2.08249 21.9581V15.5236C4.6984 15.0765 6.74752 13.0275 7.19457 10.4115H10.4118C10.9868 10.4115 11.4529 9.94539 11.4529 9.37035C11.4529 8.79531 10.9868 8.32917 10.4118 8.32917H1.0413C0.466265 8.32923 0.00012207 8.79537 0.00012207 9.37035V28.1113C0.00012207 28.6863 0.466265 29.1524 1.0413 29.1524H28.1115C28.6865 29.1524 29.1527 28.6863 29.1527 28.1113V9.37035C29.1527 8.79537 28.6865 8.32923 28.1115 8.32923ZM2.08242 10.4115H5.05809C4.67711 11.8685 3.53936 13.0062 2.08242 13.3872V10.4115V10.4115ZM2.08242 27.0701V24.0945C3.53936 24.4754 4.67711 25.6132 5.05809 27.0701H2.08242ZM27.0703 27.0701H24.0946C24.4756 25.6132 25.6134 24.4754 27.0703 24.0945V27.0701ZM27.0703 13.3871C25.6134 13.0062 24.4756 11.8684 24.0946 10.4115H27.0703V13.3871Z" fill="white"/>
</g>
<defs>
<clipPath id="clip0_1_328">
<rect width="29.1525" height="29.1525" fill="white"/>
</clipPath>
</defs>
</svg>
