<svg width="26" height="26" viewBox="0 0 26 26" fill="none" xmlns="http://www.w3.org/2000/svg">
<path d="M13 0C5.81929 0 0 5.81929 0 13C0 16.8744 1.69409 20.3547 4.38622 22.7398C6.68425 24.7665 9.69882 26 13 26C16.3063 26 19.3209 24.7665 21.6138 22.7346C24.3059 20.3547 26 16.8744 26 13C26 5.81929 20.1807 0 13 0Z" fill="white"/>
<path d="M20.5948 21.6804C19.9294 21.1839 18.7216 20.3599 17.4062 19.7509C16.0909 19.1469 15.318 17.7292 15.5279 16.3013C15.5279 16.2808 15.533 16.2603 15.5381 16.2347C15.5381 16.2347 18.5322 14.208 18.1176 12.2324C18.1176 12.2324 18.2098 12.2375 18.348 12.2273C19.6684 12.1044 19.7503 10.1391 18.4452 9.92922C18.435 9.92922 18.4196 9.9241 18.4094 9.9241L18.3684 9.70914C18.7676 8.3119 19.7401 4.07922 16.7972 4.48867C16.7972 4.48867 14.6834 0.993001 10.2153 2.67686C5.74205 4.3556 6.90898 8.36308 6.90898 8.36308L7.46173 9.95993C6.25898 10.2568 6.37158 12.1147 7.6511 12.2324C7.78929 12.2426 7.88654 12.2375 7.88654 12.2375C7.46685 14.2131 10.4609 16.2399 10.4609 16.2399C10.4661 16.2654 10.4661 16.2859 10.4712 16.3064C10.6759 17.7343 9.90307 19.1521 8.59283 19.756C7.27236 20.365 6.06961 21.1942 5.40425 21.6855C5.00504 21.9773 4.65189 22.3304 4.38063 22.745C6.68378 24.7666 9.69835 26.0001 12.9995 26.0001C16.3058 26.0001 19.3204 24.7666 21.6133 22.7347C21.3472 22.3253 20.994 21.9721 20.5948 21.6804Z" fill="#214CBC"/>
</svg>
