<svg width="19" height="29" viewBox="0 0 19 29" fill="none" xmlns="http://www.w3.org/2000/svg">
<path d="M17.0762 0H1.09688C0.49067 0 0 0.49067 0 1.09688V27.9031C0 28.5093 0.49067 29 1.09688 29H17.0762C17.6824 29 18.1731 28.5093 18.1731 27.9031V1.09688C18.1731 0.49067 17.6817 0 17.0762 0ZM6.28365 1.33746H11.8902C12.0913 1.33746 12.2558 1.50126 12.2558 1.70309C12.2558 1.90491 12.0913 2.06871 11.8902 2.06871H6.28365C6.08182 2.06871 5.91802 1.90491 5.91802 1.70309C5.91802 1.50126 6.08109 1.33746 6.28365 1.33746ZM9.08654 27.7847C8.54834 27.7847 8.11178 27.3474 8.11178 26.8099C8.11178 26.2724 8.54834 25.8344 9.08654 25.8344C9.62474 25.8344 10.0613 26.2724 10.0613 26.8092C10.0613 27.3459 9.62474 27.7847 9.08654 27.7847ZM15.9793 24.7375H2.19376V3.04347H15.9793V24.7375Z" fill="white"/>
</svg>
