<svg width="34" height="34" viewBox="0 0 34 34" fill="none" xmlns="http://www.w3.org/2000/svg">
<path d="M13.8899 0.954122L13.8899 0.954117C14.9285 0.781191 15.9868 0.896098 16.9596 1.27439C17.6128 1.01904 18.3217 0.875 19.0645 0.875C22.2639 0.875 24.8669 3.47806 24.8669 6.67742C24.8669 9.87678 22.2639 12.4798 19.0645 12.4798C17.6626 12.4798 16.3316 11.976 15.2779 11.0657L10.6819 11.4193C10.4376 11.4382 10.1924 11.4476 9.9471 11.4476C8.72301 11.4476 7.52585 11.2175 6.38952 10.7625L13.8899 0.954122ZM13.8899 0.954122L9.07343 1.75721C8.39722 1.86965 7.72993 2.05582 7.09028 2.3121L5.59963 2.90816L1.03031 1.76596L0.875 1.72713V1.88723V11.4681V11.6282L1.03031 11.5894L5.59966 10.4472L6.38941 10.7625L13.8899 0.954122ZM14.6917 6.98815L14.6918 6.98816L16.239 7.37523L16.2391 7.37525L16.2088 7.49652L14.6917 6.98815ZM14.6917 6.98815C14.6502 6.97776 14.6157 6.96771 14.5792 6.95704C14.5741 6.95556 14.569 6.95407 14.5638 6.95256C14.5623 6.93712 14.5608 6.922 14.5594 6.9071C14.5515 6.82782 14.5444 6.7551 14.5444 6.67742C14.5444 4.18492 16.5725 2.15726 19.0645 2.15726C21.5565 2.15726 23.5847 4.18492 23.5847 6.67742C23.5847 9.16992 21.5565 11.1976 19.0645 11.1976M14.6917 6.98815L19.0645 11.1976M19.0645 11.1976C18.2967 11.1976 17.5561 11.0028 16.8979 10.6411L19.0645 11.1976ZM11.6221 5.85231L11.6219 5.85225C11.5143 5.79863 11.4476 5.69083 11.4476 5.56981C11.4476 5.39617 11.5894 5.25403 11.7634 5.25403H13.4438C13.3379 5.66937 13.274 6.10203 13.2636 6.54844C12.7031 6.34806 12.1532 6.11765 11.6221 5.85231ZM7.56667 3.50264L7.56668 3.50264C8.12094 3.28094 8.69908 3.11925 9.2842 3.02215L9.2843 3.02214L14.1008 2.21904L14.1008 2.21904C14.5286 2.14767 14.9612 2.14568 15.3882 2.19967C14.7951 2.68692 14.3006 3.28798 13.9379 3.97177H11.7634C10.8819 3.97177 10.1653 4.68838 10.1653 5.56981C10.1653 6.17822 10.5038 6.72621 11.0488 6.99924L11.0489 6.9993C12.1105 7.52982 13.2313 7.94435 14.3813 8.23147L15.9284 8.6185C15.9284 8.61851 15.9285 8.61852 15.9285 8.61852C16.1822 8.68252 16.3589 8.90926 16.3589 9.17032C16.3589 9.46463 16.128 9.71392 15.8343 9.73679L15.8342 9.7368L10.5832 10.1409L10.583 10.1409C9.31558 10.2401 8.04707 10.0449 6.86581 9.57195L6.86578 9.57194L6.28629 9.34014V4.0147L7.56667 3.50264ZM5.00403 4.08134V9.2735L2.15726 9.98519V3.36965L5.00403 4.08134Z" fill="white" stroke="#0047CC" stroke-width="0.25"/>
<mask id="path-2-outside-1_1_112" maskUnits="userSpaceOnUse" x="5.16211" y="12.3872" width="29" height="21" fill="black">
<rect fill="white" x="5.16211" y="12.3872" width="29" height="21"/>
<path d="M31.5835 19.8791L29.3198 16.484H29.3879C30.2416 16.484 30.9363 15.7893 30.9363 14.9356C30.9363 14.0819 30.2416 13.3872 29.3879 13.3872H9.77501C8.92134 13.3872 8.22663 14.0819 8.22663 14.9356C8.22663 15.7893 8.92134 16.484 9.77501 16.484H9.84314L7.57992 19.8791C6.65243 21.2695 6.16211 22.8886 6.16211 24.5604C6.16211 29.2143 9.94792 33.0001 14.6019 33.0001H15.9686H24.2266H24.5611C29.215 33.0001 33.0008 29.2143 33.0008 24.5604C33.0008 22.8886 32.5105 21.2695 31.5835 19.8791ZM9.25888 14.9356C9.25888 14.6507 9.49063 14.4195 9.77501 14.4195H29.3879C29.6723 14.4195 29.904 14.6507 29.904 14.9356C29.904 15.2205 29.6723 15.4517 29.3879 15.4517H9.77501C9.49063 15.4517 9.25888 15.2205 9.25888 14.9356ZM15.4524 27.8388V26.8066H16.4847V27.8388H17.5169V26.8066H18.0331H18.5492V27.8388H19.5815V26.8066H20.6137V27.8388H21.646V26.8066H22.1621C22.4465 26.8066 22.6782 27.0378 22.6782 27.3227V28.3549C22.6782 28.6399 22.4465 28.8711 22.1621 28.8711H15.9686H13.904C13.6197 28.8711 13.3879 28.6399 13.3879 28.3549V27.3227C13.3879 27.0378 13.6197 26.8066 13.904 26.8066H14.4202V27.8388H15.4524ZM17.5169 25.2582V24.2259C17.5169 23.941 17.7487 23.7098 18.0331 23.7098H18.5492V24.742H19.5815V23.7098H20.6137V24.742H21.646V23.7098H22.6782V24.742H23.7105V23.7098H24.2266H24.7428V24.742H25.775V23.7098H26.2911C26.5755 23.7098 26.8073 23.941 26.8073 24.2259V25.2582C26.8073 25.5431 26.5755 25.7743 26.2911 25.7743H22.1621H18.0331C17.7487 25.7743 17.5169 25.5431 17.5169 25.2582ZM17.5169 21.6453V20.613H18.5492V21.6453H19.5815V20.613H20.6137V21.6453H21.646V20.613H22.6782V21.6453H23.7105V20.613H24.2266C24.511 20.613 24.7428 20.8442 24.7428 21.1291V22.1614C24.7428 22.4463 24.511 22.6775 24.2266 22.6775H18.0331H15.9686C15.6842 22.6775 15.4524 22.4463 15.4524 22.1614V21.1291C15.4524 20.8442 15.6842 20.613 15.9686 20.613H16.4847V21.6453H17.5169ZM15.9686 31.9679C15.6842 31.9679 15.4524 31.7366 15.4524 31.4517V30.4195C15.4524 30.1346 15.6842 29.9033 15.9686 29.9033H16.4847V30.9356H17.5169V29.9033H18.5492V30.9356H19.5815V29.9033H20.6137V30.9356H21.646V29.9033H22.1621H22.6782V30.9356H23.7105V29.9033H24.2266C24.511 29.9033 24.7428 30.1346 24.7428 30.4195V31.4517C24.7428 31.7366 24.511 31.9679 24.2266 31.9679H15.9686ZM25.7105 31.8693C25.7482 31.7356 25.775 31.5973 25.775 31.4517V30.4195C25.775 29.5658 25.0803 28.8711 24.2266 28.8711H23.6155C23.6733 28.709 23.7105 28.5366 23.7105 28.3549V27.3227C23.7105 27.141 23.6733 26.9686 23.6155 26.8066H26.2911C27.1448 26.8066 27.8395 26.1119 27.8395 25.2582V24.2259C27.8395 23.3722 27.1448 22.6775 26.2911 22.6775H25.68C25.7379 22.5155 25.775 22.3431 25.775 22.1614V21.1291C25.775 20.2755 25.0803 19.5808 24.2266 19.5808H15.9686C15.1149 19.5808 14.4202 20.2755 14.4202 21.1291V22.1614C14.4202 23.0151 15.1149 23.7098 15.9686 23.7098H16.5797C16.5219 23.8719 16.4847 24.0442 16.4847 24.2259V25.2582C16.4847 25.4399 16.5219 25.6122 16.5797 25.7743H13.904C13.0504 25.7743 12.3557 26.469 12.3557 27.3227V28.3549C12.3557 29.2086 13.0504 29.9033 13.904 29.9033H14.5151C14.4573 30.0654 14.4202 30.2378 14.4202 30.4195V31.4517C14.4202 31.6319 14.4568 31.8027 14.5141 31.9632C10.4702 31.9157 7.19437 28.6151 7.19437 24.5604C7.19437 23.093 7.6243 21.6721 8.43824 20.4515L11.0834 16.484H28.0795L30.7247 20.452C31.5386 21.6726 31.9686 23.0935 31.9686 24.5609C31.9686 28.2528 29.2496 31.3139 25.7105 31.8693Z"/>
</mask>
<path d="M31.5835 19.8791L29.3198 16.484H29.3879C30.2416 16.484 30.9363 15.7893 30.9363 14.9356C30.9363 14.0819 30.2416 13.3872 29.3879 13.3872H9.77501C8.92134 13.3872 8.22663 14.0819 8.22663 14.9356C8.22663 15.7893 8.92134 16.484 9.77501 16.484H9.84314L7.57992 19.8791C6.65243 21.2695 6.16211 22.8886 6.16211 24.5604C6.16211 29.2143 9.94792 33.0001 14.6019 33.0001H15.9686H24.2266H24.5611C29.215 33.0001 33.0008 29.2143 33.0008 24.5604C33.0008 22.8886 32.5105 21.2695 31.5835 19.8791ZM9.25888 14.9356C9.25888 14.6507 9.49063 14.4195 9.77501 14.4195H29.3879C29.6723 14.4195 29.904 14.6507 29.904 14.9356C29.904 15.2205 29.6723 15.4517 29.3879 15.4517H9.77501C9.49063 15.4517 9.25888 15.2205 9.25888 14.9356ZM15.4524 27.8388V26.8066H16.4847V27.8388H17.5169V26.8066H18.0331H18.5492V27.8388H19.5815V26.8066H20.6137V27.8388H21.646V26.8066H22.1621C22.4465 26.8066 22.6782 27.0378 22.6782 27.3227V28.3549C22.6782 28.6399 22.4465 28.8711 22.1621 28.8711H15.9686H13.904C13.6197 28.8711 13.3879 28.6399 13.3879 28.3549V27.3227C13.3879 27.0378 13.6197 26.8066 13.904 26.8066H14.4202V27.8388H15.4524ZM17.5169 25.2582V24.2259C17.5169 23.941 17.7487 23.7098 18.0331 23.7098H18.5492V24.742H19.5815V23.7098H20.6137V24.742H21.646V23.7098H22.6782V24.742H23.7105V23.7098H24.2266H24.7428V24.742H25.775V23.7098H26.2911C26.5755 23.7098 26.8073 23.941 26.8073 24.2259V25.2582C26.8073 25.5431 26.5755 25.7743 26.2911 25.7743H22.1621H18.0331C17.7487 25.7743 17.5169 25.5431 17.5169 25.2582ZM17.5169 21.6453V20.613H18.5492V21.6453H19.5815V20.613H20.6137V21.6453H21.646V20.613H22.6782V21.6453H23.7105V20.613H24.2266C24.511 20.613 24.7428 20.8442 24.7428 21.1291V22.1614C24.7428 22.4463 24.511 22.6775 24.2266 22.6775H18.0331H15.9686C15.6842 22.6775 15.4524 22.4463 15.4524 22.1614V21.1291C15.4524 20.8442 15.6842 20.613 15.9686 20.613H16.4847V21.6453H17.5169ZM15.9686 31.9679C15.6842 31.9679 15.4524 31.7366 15.4524 31.4517V30.4195C15.4524 30.1346 15.6842 29.9033 15.9686 29.9033H16.4847V30.9356H17.5169V29.9033H18.5492V30.9356H19.5815V29.9033H20.6137V30.9356H21.646V29.9033H22.1621H22.6782V30.9356H23.7105V29.9033H24.2266C24.511 29.9033 24.7428 30.1346 24.7428 30.4195V31.4517C24.7428 31.7366 24.511 31.9679 24.2266 31.9679H15.9686ZM25.7105 31.8693C25.7482 31.7356 25.775 31.5973 25.775 31.4517V30.4195C25.775 29.5658 25.0803 28.8711 24.2266 28.8711H23.6155C23.6733 28.709 23.7105 28.5366 23.7105 28.3549V27.3227C23.7105 27.141 23.6733 26.9686 23.6155 26.8066H26.2911C27.1448 26.8066 27.8395 26.1119 27.8395 25.2582V24.2259C27.8395 23.3722 27.1448 22.6775 26.2911 22.6775H25.68C25.7379 22.5155 25.775 22.3431 25.775 22.1614V21.1291C25.775 20.2755 25.0803 19.5808 24.2266 19.5808H15.9686C15.1149 19.5808 14.4202 20.2755 14.4202 21.1291V22.1614C14.4202 23.0151 15.1149 23.7098 15.9686 23.7098H16.5797C16.5219 23.8719 16.4847 24.0442 16.4847 24.2259V25.2582C16.4847 25.4399 16.5219 25.6122 16.5797 25.7743H13.904C13.0504 25.7743 12.3557 26.469 12.3557 27.3227V28.3549C12.3557 29.2086 13.0504 29.9033 13.904 29.9033H14.5151C14.4573 30.0654 14.4202 30.2378 14.4202 30.4195V31.4517C14.4202 31.6319 14.4568 31.8027 14.5141 31.9632C10.4702 31.9157 7.19437 28.6151 7.19437 24.5604C7.19437 23.093 7.6243 21.6721 8.43824 20.4515L11.0834 16.484H28.0795L30.7247 20.452C31.5386 21.6726 31.9686 23.0935 31.9686 24.5609C31.9686 28.2528 29.2496 31.3139 25.7105 31.8693Z" fill="white"/>
<path d="M31.5835 19.8791L29.3198 16.484H29.3879C30.2416 16.484 30.9363 15.7893 30.9363 14.9356C30.9363 14.0819 30.2416 13.3872 29.3879 13.3872H9.77501C8.92134 13.3872 8.22663 14.0819 8.22663 14.9356C8.22663 15.7893 8.92134 16.484 9.77501 16.484H9.84314L7.57992 19.8791C6.65243 21.2695 6.16211 22.8886 6.16211 24.5604C6.16211 29.2143 9.94792 33.0001 14.6019 33.0001H15.9686H24.2266H24.5611C29.215 33.0001 33.0008 29.2143 33.0008 24.5604C33.0008 22.8886 32.5105 21.2695 31.5835 19.8791ZM9.25888 14.9356C9.25888 14.6507 9.49063 14.4195 9.77501 14.4195H29.3879C29.6723 14.4195 29.904 14.6507 29.904 14.9356C29.904 15.2205 29.6723 15.4517 29.3879 15.4517H9.77501C9.49063 15.4517 9.25888 15.2205 9.25888 14.9356ZM15.4524 27.8388V26.8066H16.4847V27.8388H17.5169V26.8066H18.0331H18.5492V27.8388H19.5815V26.8066H20.6137V27.8388H21.646V26.8066H22.1621C22.4465 26.8066 22.6782 27.0378 22.6782 27.3227V28.3549C22.6782 28.6399 22.4465 28.8711 22.1621 28.8711H15.9686H13.904C13.6197 28.8711 13.3879 28.6399 13.3879 28.3549V27.3227C13.3879 27.0378 13.6197 26.8066 13.904 26.8066H14.4202V27.8388H15.4524ZM17.5169 25.2582V24.2259C17.5169 23.941 17.7487 23.7098 18.0331 23.7098H18.5492V24.742H19.5815V23.7098H20.6137V24.742H21.646V23.7098H22.6782V24.742H23.7105V23.7098H24.2266H24.7428V24.742H25.775V23.7098H26.2911C26.5755 23.7098 26.8073 23.941 26.8073 24.2259V25.2582C26.8073 25.5431 26.5755 25.7743 26.2911 25.7743H22.1621H18.0331C17.7487 25.7743 17.5169 25.5431 17.5169 25.2582ZM17.5169 21.6453V20.613H18.5492V21.6453H19.5815V20.613H20.6137V21.6453H21.646V20.613H22.6782V21.6453H23.7105V20.613H24.2266C24.511 20.613 24.7428 20.8442 24.7428 21.1291V22.1614C24.7428 22.4463 24.511 22.6775 24.2266 22.6775H18.0331H15.9686C15.6842 22.6775 15.4524 22.4463 15.4524 22.1614V21.1291C15.4524 20.8442 15.6842 20.613 15.9686 20.613H16.4847V21.6453H17.5169ZM15.9686 31.9679C15.6842 31.9679 15.4524 31.7366 15.4524 31.4517V30.4195C15.4524 30.1346 15.6842 29.9033 15.9686 29.9033H16.4847V30.9356H17.5169V29.9033H18.5492V30.9356H19.5815V29.9033H20.6137V30.9356H21.646V29.9033H22.1621H22.6782V30.9356H23.7105V29.9033H24.2266C24.511 29.9033 24.7428 30.1346 24.7428 30.4195V31.4517C24.7428 31.7366 24.511 31.9679 24.2266 31.9679H15.9686ZM25.7105 31.8693C25.7482 31.7356 25.775 31.5973 25.775 31.4517V30.4195C25.775 29.5658 25.0803 28.8711 24.2266 28.8711H23.6155C23.6733 28.709 23.7105 28.5366 23.7105 28.3549V27.3227C23.7105 27.141 23.6733 26.9686 23.6155 26.8066H26.2911C27.1448 26.8066 27.8395 26.1119 27.8395 25.2582V24.2259C27.8395 23.3722 27.1448 22.6775 26.2911 22.6775H25.68C25.7379 22.5155 25.775 22.3431 25.775 22.1614V21.1291C25.775 20.2755 25.0803 19.5808 24.2266 19.5808H15.9686C15.1149 19.5808 14.4202 20.2755 14.4202 21.1291V22.1614C14.4202 23.0151 15.1149 23.7098 15.9686 23.7098H16.5797C16.5219 23.8719 16.4847 24.0442 16.4847 24.2259V25.2582C16.4847 25.4399 16.5219 25.6122 16.5797 25.7743H13.904C13.0504 25.7743 12.3557 26.469 12.3557 27.3227V28.3549C12.3557 29.2086 13.0504 29.9033 13.904 29.9033H14.5151C14.4573 30.0654 14.4202 30.2378 14.4202 30.4195V31.4517C14.4202 31.6319 14.4568 31.8027 14.5141 31.9632C10.4702 31.9157 7.19437 28.6151 7.19437 24.5604C7.19437 23.093 7.6243 21.6721 8.43824 20.4515L11.0834 16.484H28.0795L30.7247 20.452C31.5386 21.6726 31.9686 23.0935 31.9686 24.5609C31.9686 28.2528 29.2496 31.3139 25.7105 31.8693Z" stroke="#0047CC" stroke-width="0.5" mask="url(#path-2-outside-1_1_112)"/>
<path d="M26.4111 17.69L26.3071 17.7593L26.3765 17.8633L27.065 18.8955L27.1344 18.9995L27.2384 18.9301L28.0971 18.3573L28.2011 18.2879L28.1317 18.1839L27.4432 17.1517L27.3738 17.0478L27.2698 17.1171L26.4111 17.69Z" fill="white" stroke="#0047CC" stroke-width="0.25"/>
<path d="M28.9025 21.6657C29.4755 22.5254 29.7784 23.526 29.7786 24.559L29.776 24.7243L29.7741 24.8475L29.8973 24.8512L30.9291 24.8816L31.0538 24.8853L31.0577 24.7606C31.0598 24.6937 31.0608 24.6269 31.0608 24.56C31.0608 23.2729 30.6835 22.0261 29.9694 20.9547L28.8164 19.2246L28.747 19.1206L28.643 19.1899L27.7842 19.7623L27.6802 19.8316L27.7495 19.9357L28.9025 21.6657Z" fill="white" stroke="#0047CC" stroke-width="0.25"/>
<path d="M8.6649 26.8894L8.54939 26.9374L8.59751 27.0529C8.77118 27.4697 8.98956 27.8701 9.24636 28.2427L9.31737 28.3457L9.42032 28.2746L10.2699 27.6878L10.3726 27.6168L10.3017 27.5139C10.0956 27.215 9.92066 26.8945 9.78158 26.5604L9.73356 26.445L9.61819 26.493L8.6649 26.8894Z" fill="white" stroke="#0047CC" stroke-width="0.25"/>
<path d="M8.24208 25.9071L8.26797 26.0294L8.39024 26.0035L9.4003 25.7898L9.52275 25.7639L9.49669 25.6415C9.42165 25.2889 9.38382 24.925 9.38382 24.5605C9.38382 23.5265 9.68671 22.5261 10.2599 21.6662L10.26 21.666L10.3807 21.4844L10.4498 21.3804L10.346 21.3111L9.48711 20.7388L9.38297 20.6694L9.31369 20.7736L9.193 20.9551C9.19299 20.9551 9.19298 20.9552 9.19297 20.9552C8.47892 22.0265 8.10156 23.2733 8.10156 24.5605C8.10156 25.0135 8.14891 25.4671 8.24208 25.9071Z" fill="white" stroke="#0047CC" stroke-width="0.25"/>
</svg>
