<svg width="48" height="48" viewBox="0 0 48 48" fill="none" xmlns="http://www.w3.org/2000/svg">
<path fill-rule="evenodd" clip-rule="evenodd" d="M23.9995 48.0002C37.2543 48.0002 47.9995 37.255 47.9995 24.0002C47.9995 10.7453 37.2543 0.000183105 23.9995 0.000183105C10.7447 0.000183105 -0.000488281 10.7453 -0.000488281 24.0002C-0.000488281 37.255 10.7447 48.0002 23.9995 48.0002Z" fill="url(#paint0_linear_1_449)"/>
<path d="M15.9214 30.8142C15.6288 31.1068 15.1749 31.0848 14.9148 30.762C14.9148 30.762 15.0639 30.957 14.9113 30.7573C11.5353 26.3417 11.866 20.0009 15.9035 15.9634C20.3015 11.5654 27.4323 11.5658 31.8309 15.9644C36.2294 20.3629 36.2296 27.494 31.8318 31.8918C27.7953 35.9283 21.4568 36.26 17.0417 32.8868C16.8408 32.7333 17.0321 32.8794 17.0321 32.8794C16.7111 32.6166 16.6885 32.1663 16.9809 31.8739L26.0477 22.807C26.194 22.6608 26.3122 22.7096 26.312 22.9146L26.3061 27.0942C26.3046 28.0941 27.8049 28.093 27.806 27.0927L27.8453 20.8618C27.8486 20.344 27.4307 19.9283 26.9092 19.9331L20.7024 19.989C19.7019 19.9899 19.7006 21.4901 20.7009 21.489L24.8802 21.4829C25.086 21.4827 25.1352 21.6001 24.988 21.7473L15.9214 30.8142Z" fill="white"/>
<defs>
<linearGradient id="paint0_linear_1_449" x1="0.705394" y1="2.8237" x2="48.0094" y2="2.64719" gradientUnits="userSpaceOnUse">
<stop stop-color="#4181F9"/>
<stop offset="1" stop-color="#0047CC"/>
</linearGradient>
</defs>
</svg>
