<svg width="32" height="32" viewBox="0 0 32 32" fill="none" xmlns="http://www.w3.org/2000/svg">
<path d="M8.0547 22.814C7.76212 23.1066 7.30823 23.0846 7.04809 22.7618C7.04809 22.7618 7.19716 22.9568 7.04457 22.7572C3.66857 18.3415 3.99931 12.0007 8.03677 7.96323C12.4348 3.56525 19.5656 3.56563 23.9642 7.96417C28.3627 12.3627 28.3629 19.4938 23.9651 23.8916C19.9286 27.9281 13.5901 28.2598 9.17499 24.8866C8.97407 24.7331 9.16536 24.8792 9.16536 24.8792C8.84444 24.6165 8.82183 24.1661 9.11421 23.8737L18.181 14.8069C18.3273 14.6606 18.4455 14.7095 18.4453 14.9145L18.4394 19.094C18.4379 20.0939 19.9382 20.0929 19.9393 19.0925L19.9786 12.8616C19.9819 12.3438 19.564 11.9281 19.0425 11.9329L12.8357 11.9889C11.8352 11.9898 11.8339 13.4899 12.8342 13.4888L17.0135 13.4827C17.2193 13.4825 17.2685 13.5999 17.1213 13.7471L8.0547 22.814Z" fill="white"/>
</svg>
